<?xml version="1.0" encoding="utf-8"?>
<svg version="1.1" xmlns:xlink="http://www.w3.org/1999/xlink" width="30px" height="30px" xmlns="http://www.w3.org/2000/svg">
  <g transform="matrix(1 0 0 1 -14 -15 )">
    <path d="M 7.5 20  L 7.5 27  L 22.5 27  L 22.5 20  L 7.5 20  Z M 25 19.375  L 25 27.5  L 27 27.5  L 27 10  C 27.5 9.81770833333333  27.4348958333333 9.56705729166667  27.3046875 9.248046875  C 27.1744791666667 8.92903645833333  27.0442708333333 8.70442708333333  26.9140625 8.57421875  L 21.42578125 3.0859375  C 21.2955729166667 2.95572916666666  21.07421875 2.82552083333333  20.76171875 2.6953125  C 20.44921875 2.56510416666667  20.1953125 2.5  20 2.5  L 20 10.625  C 20 11.1458333333333  19.8177083333333 11.5885416666667  19.453125 11.953125  C 19.0885416666667 12.3177083333333  18.6458333333333 12.5  18.125 13  L 6.875 13  C 6.35416666666667 12.5  5.91145833333333 12.3177083333333  5.546875 11.953125  C 5.18229166666667 11.5885416666667  5 11.1458333333333  5 10.625  L 5 2.5  L 3 2.5  L 3 27.5  L 5 27.5  L 5 19.375  C 5 18.8541666666667  5.18229166666667 18.4114583333333  5.546875 18.046875  C 5.91145833333333 17.6822916666667  6.35416666666667 17.5  6.875 17  L 23.125 17  C 23.6458333333333 17.5  24.0885416666667 17.6822916666667  24.453125 18.046875  C 24.8177083333333 18.4114583333333  25 18.8541666666667  25 19.375  Z M 17.314453125 9.814453125  C 17.4381510416667 9.69075520833333  17.5 9.54427083333333  17.5 9.375  L 17.5 3.125  C 17.5 2.95572916666666  17.4381510416667 2.80924479166666  17.314453125 2.685546875  C 17.1907552083333 2.56184895833333  17.0442708333333 2.5  16.875 2.5  L 13.125 2.5  C 12.9557291666667 2.5  12.8092447916667 2.56184895833333  12.685546875 2.685546875  C 12.5618489583333 2.80924479166666  12.5 2.95572916666666  12.5 3.125  L 12.5 9.375  C 12.5 9.54427083333333  12.5618489583333 9.69075520833333  12.685546875 9.814453125  C 12.8092447916667 9.93815104166666  12.9557291666667 10  13.125 10  L 16.875 10  C 17.0442708333333 10  17.1907552083333 9.93815104166666  17.314453125 9.814453125  Z M 29.609375 8.28125  C 29.8697916666667 8.90625  30 9.47916666666667  30 10  L 30 28.125  C 30 28.6458333333333  29.8177083333333 29.0885416666667  29.453125 29.453125  C 29.0885416666667 29.8177083333333  28.6458333333333 30  28.125 30  L 1.875 30  C 1.35416666666667 30  0.911458333333333 29.8177083333333  0.546875 29.453125  C 0.182291666666667 29.0885416666667  0 28.6458333333333  0 28.125  L 0 1.875  C 0 1.35416666666667  0.182291666666667 0.911458333333329  0.546875 0.546874999999999  C 0.911458333333333 0.182291666666665  1.35416666666667 0  1.875 0  L 20 0  C 20.5208333333333 0  21.09375 0.13020833333333  21.71875 0.390625000000001  C 22.34375 0.651041666666665  22.8385416666667 0.963541666666664  23.203125 1.328125  L 28.671875 6.796875  C 29.0364583333333 7.16145833333333  29.3489583333333 7.65625  29.609375 8.28125  Z " fill-rule="nonzero" fill="#ffffff" stroke="none" transform="matrix(1 0 0 1 14 15 )" />
  </g>
</svg>