<?xml version="1.0" encoding="utf-8"?>
<svg version="1.1" xmlns:xlink="http://www.w3.org/1999/xlink" width="28px" height="26px" xmlns="http://www.w3.org/2000/svg">
  <g transform="matrix(1 0 0 1 -1385 -82 )">
    <path d="M 6.46153846153846 19  L 6.46153846153846 23.8333333333333  L 21.5384615384615 23.8333333333333  L 21.5384615384615 19  L 6.46153846153846 19  Z M 7 2.16666666666667  L 7 13  L 21.5384615384615 13  L 21.5384615384615 6.5  L 18.8461538461538 6.5  C 18.3974358974359 6.5  18.0160256410256 6.34201388888889  17.7019230769231 6.02604166666667  C 17.3878205128205 5.71006944444444  17.2307692307692 5.32638888888889  17.2307692307692 4.875  L 17.2307692307692 2.16666666666667  L 7 2.16666666666667  Z M 25.5264423076923 14.8450520833333  C 25.7395833333333 14.6306423611111  25.8461538461538 14.3767361111111  25.8461538461538 14.0833333333333  C 25.8461538461538 13.7899305555556  25.7395833333333 13.5360243055556  25.5264423076923 13.3216145833333  C 25.3133012820513 13.1072048611111  25.0608974358974 13  24.7692307692308 13  C 24.4775641025641 13  24.2251602564103 13.1072048611111  24.0120192307692 13.3216145833333  C 23.7988782051282 13.5360243055556  23.6923076923077 13.7899305555556  23.6923076923077 14.0833333333333  C 23.6923076923077 14.3767361111111  23.7988782051282 14.6306423611111  24.0120192307692 14.8450520833333  C 24.2251602564103 15.0594618055556  24.4775641025641 15.1666666666667  24.7692307692308 15.1666666666667  C 25.0608974358974 15.1666666666667  25.3133012820513 15.0594618055556  25.5264423076923 14.8450520833333  Z M 27.0492788461538 11.7897135416667  C 27.6830929487179 12.4273003472222  28 13.1918402777778  28 14.0833333333333  L 28 21.125  C 28 21.2717013888889  27.9467147435897 21.3986545138889  27.8401442307692 21.505859375  C 27.7335737179487 21.6130642361111  27.6073717948718 21.6666666666667  27.4615384615385 21.6666666666667  L 23.6923076923077 21.6666666666667  L 23.6923076923077 24.375  C 23.6923076923077 24.8263888888889  23.5352564102564 25.2100694444444  23.2211538461538 25.5260416666667  C 22.9070512820513 25.8420138888889  22.525641025641 26  22.0769230769231 26  L 5.92307692307692 26  C 5.47435897435898 26  5.09294871794872 25.8420138888889  4.77884615384615 25.5260416666667  C 4.46474358974359 25.2100694444444  4.30769230769231 24.8263888888889  4.30769230769231 24.375  L 4.30769230769231 21.6666666666667  L 0.538461538461539 21.6666666666667  C 0.392628205128205 21.6666666666667  0.266426282051282 21.6130642361111  0.159855769230769 21.505859375  C 0.0532852564102564 21.3986545138889  0 21.2717013888889  0 21.125  L 0 14.0833333333333  C 0 13.1918402777778  0.316907051282051 12.4273003472222  0.950721153846154 11.7897135416667  C 1.58453525641026 11.1521267361111  2.34455128205128 10.8333333333333  3.23076923076923 10.8333333333333  L 4.30769230769231 10.8333333333333  L 4.30769230769231 1.625  C 4.30769230769231 1.17361111111111  4.46474358974359 0.789930555555552  4.77884615384615 0.473958333333332  C 5.09294871794872 0.15798611111111  5.47435897435898 0  5.92307692307692 0  L 17.2307692307692 0  C 17.6794871794872 0  18.1730769230769 0.11284722222222  18.7115384615385 0.338541666666668  C 19.25 0.56423611111111  19.6762820512821 0.835069444444442  19.9903846153846 1.15104166666667  L 22.5480769230769 3.72395833333333  C 22.8621794871795 4.03993055555555  23.1314102564103 4.46875  23.3557692307692 5.01041666666667  C 23.5801282051282 5.55208333333333  23.6923076923077 6.04861111111111  23.6923076923077 6.5  L 23.6923076923077 10.8333333333333  L 24.7692307692308 10.8333333333333  C 25.6554487179487 10.8333333333333  26.4154647435897 11.1521267361111  27.0492788461538 11.7897135416667  Z " fill-rule="nonzero" fill="#fefefe" stroke="none" transform="matrix(1 0 0 1 1385 82 )" />
  </g>
</svg>