<?xml version="1.0" encoding="utf-8"?>
<svg version="1.1" xmlns:xlink="http://www.w3.org/1999/xlink" width="27px" height="30px" xmlns="http://www.w3.org/2000/svg">
  <g transform="matrix(1 0 0 1 -527 -1013 )">
    <path d="M 20.3203125 1.13839285714286  L 25.8046875 6.36160714285714  C 26.1328125 6.67410714285714  26.4140625 7.09821428571429  26.6484375 7.63392857142857  C 26.8828125 8.16964285714286  27 8.66071428571428  27 9.10714285714286  L 27 28.3928571428571  C 27 28.8392857142857  26.8359375 29.21875  26.5078125 29.53125  C 26.1796875 29.84375  25.78125 30  25.3125 30  L 1.6875 30  C 1.21875 30  0.8203125 29.84375  0.4921875 29.53125  C 0.1640625 29.21875  0 28.8392857142857  0 28.3928571428571  L 0 1.60714285714286  C 0 1.16071428571428  0.1640625 0.781249999999999  0.4921875 0.46875  C 0.8203125 0.156250000000001  1.21875 0  1.6875 0  L 17.4375 0  C 17.90625 0  18.421875 0.111607142857144  18.984375 0.334821428571429  C 19.546875 0.558035714285714  19.9921875 0.825892857142856  20.3203125 1.13839285714286  Z M 18.720703125 2.64508928571429  C 18.580078125 2.51116071428571  18.33984375 2.38839285714285  18 2.27678571428571  L 18 8.57142857142857  L 24.609375 8.57142857142857  C 24.4921875 8.24776785714285  24.36328125 8.01897321428571  24.22265625 7.88504464285714  L 18.720703125 2.64508928571429  Z M 2.25 27.8571428571429  L 24.75 27.8571428571429  L 24.75 10.7142857142857  L 17.4375 10.7142857142857  C 16.96875 10.7142857142857  16.5703125 10.5580357142857  16.2421875 10.2455357142857  C 15.9140625 9.93303571428571  15.75 9.55357142857143  15.75 9.10714285714286  L 15.75 2.14285714285714  L 2.25 2.14285714285714  L 2.25 27.8571428571429  Z M 6.75 14.4642857142857  L 6.75 13.3928571428571  C 6.75 13.2366071428571  6.802734375 13.1082589285714  6.908203125 13.0078125  C 7.013671875 12.9073660714286  7.1484375 12.8571428571429  7.3125 13  L 19.6875 13  C 19.8515625 12.8571428571429  19.986328125 12.9073660714286  20.091796875 13.0078125  C 20.197265625 13.1082589285714  20.25 13.2366071428571  20.25 13.3928571428571  L 20.25 14.4642857142857  C 20.25 14.6205357142857  20.197265625 14.7488839285714  20.091796875 14.8493303571429  C 19.986328125 14.9497767857143  19.8515625 15  19.6875 15  L 7.3125 15  C 7.1484375 15  7.013671875 14.9497767857143  6.908203125 14.8493303571429  C 6.802734375 14.7488839285714  6.75 14.6205357142857  6.75 14.4642857142857  Z M 7.3125 17  L 19.6875 17  C 19.8515625 17.1428571428571  19.986328125 17.1930803571429  20.091796875 17.2935267857143  C 20.197265625 17.3939732142857  20.25 17.5223214285714  20.25 17.6785714285714  L 20.25 18.75  C 20.25 18.90625  20.197265625 19.0345982142857  20.091796875 19.1350446428571  C 19.986328125 19.2354910714286  19.8515625 19.2857142857143  19.6875 19  L 7.3125 19  C 7.1484375 19.2857142857143  7.013671875 19.2354910714286  6.908203125 19.1350446428571  C 6.802734375 19.0345982142857  6.75 18.90625  6.75 18.75  L 6.75 17.6785714285714  C 6.75 17.5223214285714  6.802734375 17.3939732142857  6.908203125 17.2935267857143  C 7.013671875 17.1930803571429  7.1484375 17.1428571428571  7.3125 17  Z M 7.3125 21  L 19.6875 21  C 19.8515625 21.4285714285714  19.986328125 21.4787946428571  20.091796875 21.5792410714286  C 20.197265625 21.6796875  20.25 21.8080357142857  20.25 21.9642857142857  L 20.25 23.0357142857143  C 20.25 23.1919642857143  20.197265625 23.3203125  20.091796875 23.4207589285714  C 19.986328125 23.5212053571429  19.8515625 23.5714285714286  19.6875 23  L 7.3125 23  C 7.1484375 23.5714285714286  7.013671875 23.5212053571429  6.908203125 23.4207589285714  C 6.802734375 23.3203125  6.75 23.1919642857143  6.75 23.0357142857143  L 6.75 21.9642857142857  C 6.75 21.8080357142857  6.802734375 21.6796875  6.908203125 21.5792410714286  C 7.013671875 21.4787946428571  7.1484375 21.4285714285714  7.3125 21  Z " fill-rule="nonzero" fill="#ffffff" stroke="none" fill-opacity="0.996078431372549" transform="matrix(1 0 0 1 527 1013 )" />
  </g>
</svg>