<svg t="1681953375206" class="icon" viewBox="0 0 1024 1024" version="1.1" xmlns="http://www.w3.org/2000/svg" p-id="1512" width="200" height="200"><path d="M538.46016 714.0352h215.79776c18.88256 0 35.06688 16.18432 35.06688 35.06688s-16.18432 37.77024-35.06688 37.77024h-215.79776c-18.88256 0-35.06688-16.18432-35.06688-35.06688 0-18.8928 16.1792-37.77024 35.06688-37.77024zM548.09088 418.47296h215.79776c18.88256 0 35.072 16.18432 35.072 35.06688s-16.18944 35.072-35.072 35.072h-215.79776c-18.88256 0-35.06176-16.18944-35.06176-35.072s16.1792-35.06688 35.06176-35.06688zM237.88032 423.86944c5.39648-5.39648 16.18432-5.39648 24.27904 0l59.34592 59.34592 129.47968-129.47968c8.0896-8.09472 21.57568-8.09472 26.97728 0 8.0896 8.09472 8.0896 18.88256 0 26.97216l-140.26752 140.26752c-5.39648 2.70336-10.78784 5.39648-16.18432 5.39648s-8.09472-2.688-10.78784-5.39648l-70.144-70.12864c-10.78784-10.79296-10.78784-21.58592-2.69824-26.97728zM434.79552 806.90688c-8.0896 8.09984-21.57568 8.09984-26.97728 0l-56.64256-56.64256-56.64768 56.64256c-8.09472 8.09984-21.5808 8.09984-26.97728 0-8.0896-8.0896-8.0896-21.57568 0-26.97216l56.64768-56.64768-56.64768-56.64256c-8.0896-8.0896-8.0896-21.57568 0-26.97216 8.09472-8.09472 18.88256-8.09472 26.97728 0l56.64768 56.64256 56.64256-56.64256c8.09472-8.09472 21.5808-8.09472 26.97728 0 8.09472 8.0896 8.09472 18.88256 0 26.97216l-56.64256 56.64256 56.64256 56.64768c8.09472 5.39648 8.09472 18.88256 0 26.97216z" p-id="1513" fill="#ffffff"></path><path d="M833.24928 148.52608H767.6928a106.4448 106.4448 0 0 1 2.11968 20.89472v32.9472h63.4368c17.81248 0 32.3072 14.4896 32.3072 32.30208v671.98976c0 17.81248-14.4896 32.3072-32.3072 32.3072H204.25728a32.34304 32.34304 0 0 1-32.3072-32.3072V234.66496a32.33792 32.33792 0 0 1 32.3072-32.30208h63.4368V169.4208c0-7.15776 0.77824-14.12608 2.1248-20.89472H204.25728c-47.58016 0-86.13888 38.56896-86.13888 86.13888v671.98976c0 47.58016 38.55872 86.13888 86.13888 86.13888h628.99712c47.56992 0 86.13888-38.55872 86.13888-86.13888V234.66496c-0.00512-47.56992-38.57408-86.13888-86.144-86.13888z" p-id="1514" fill="#ffffff"></path><path d="M663.0656 134.35392h-37.76c0-59.3408-48.55808-107.89888-107.89888-107.89888-59.34592 0-107.89376 48.55296-107.89376 107.89888h-35.072c-18.88256 0-35.072 16.18944-35.072 35.06688v37.76512l358.76352-2.69824V169.4208c0-18.88256-16.18944-35.06688-35.06688-35.06688z m-78.72 30.0288l-133.87264 1.00352V134.3488c0-36.91008 30.02368-66.93888 66.93376-66.93888s66.93888 30.0288 66.93888 66.93888v30.03392z" p-id="1515" fill="#ffffff"></path></svg>