<svg t="1681960896546" class="icon" viewBox="0 0 1024 1024" version="1.1" xmlns="http://www.w3.org/2000/svg" p-id="2426" width="200" height="200"><path d="M822.6 817.5v62.1c0 26.6-20.7 47.3-47.4 47.3H147c-26.7 0-47.4-20.7-47.4-47.3V146.7c0-26.6 20.7-47.3 47.4-47.3h631.1c26.7 0 47.4 20.7 47.4 47.3v322.1c-38.5-26.6-83-41.4-133.3-41.4C567.8 427.4 467 525 467 646.1c0 121.2 100.7 218.7 225.2 218.7 47.4-5.9 91.8-20.7 130.4-47.3L790 785c-29.6 17.7-62.2 29.5-100.7 29.5-97.8 0-177.8-76.8-177.8-171.4 0-94.6 80-171.4 177.8-171.4S867 548.6 867 643.2c0 41.4-14.8 76.8-38.5 106.4l91.8 94.6c8.9 11.8 8.9 26.6 0 35.5-11.8 8.9-26.7 8.9-38.5 0l-59.2-62.2zM235.9 403.8c-14.8 0-23.7 11.8-23.7 23.6v3c0 14.8 11.8 23.6 23.7 23.6h127.4c14.8 0 23.7-11.8 23.7-23.6v-3c0-14.8-11.9-23.6-23.7-23.6H235.9z m0-147.7c-14.8 0-23.7 11.8-23.7 23.6v3c0 14.8 11.8 23.6 23.7 23.6h435.5c14.8 0 23.7-11.8 23.7-23.6v-3c0-14.8-11.8-23.6-23.7-23.6H235.9z" fill="#ffffff" p-id="2427"></path></svg>