<?xml version="1.0" encoding="utf-8"?>
<svg version="1.1" xmlns:xlink="http://www.w3.org/1999/xlink" width="26px" height="26px" xmlns="http://www.w3.org/2000/svg">
  <g transform="matrix(1 0 0 1 -1621 -131 )">
    <path d="M 15.9453125 15.9453125  C 17.3151041666667 14.5755208333333  18 12.9270833333333  18 11  C 18 9.07291666666666  17.3151041666667 7.42447916666667  15.9453125 6.0546875  C 14.5755208333333 4.68489583333333  12.9270833333333 4  11 4  C 9.07291666666667 4  7.42447916666667 4.68489583333333  6.0546875 6.0546875  C 4.68489583333333 7.42447916666667  4 9.07291666666666  4 11  C 4 12.9270833333333  4.68489583333333 14.5755208333333  6.0546875 15.9453125  C 7.42447916666667 17.3151041666667  9.07291666666667 18  11 18  C 12.9270833333333 18  14.5755208333333 17.3151041666667  15.9453125 15.9453125  Z M 25.421875 22.59375  C 25.8072916666667 22.9791666666667  26 23.4479166666667  26 24  C 26 24.5416666666667  25.8020833333333 25.0104166666667  25.40625 25.40625  C 25.0104166666667 25.8020833333333  24.5416666666667 26  24 26  C 23.4375 26  22.96875 25.8020833333333  22.59375 25.40625  L 17.234375 20.0625  C 15.3697916666667 21.3541666666667  13.2916666666667 22  11 22  C 9.51041666666667 22  8.0859375 21.7109375  6.7265625 21.1328125  C 5.3671875 20.5546875  4.1953125 19.7734375  3.2109375 18.7890625  C 2.2265625 17.8046875  1.4453125 16.6328125  0.8671875 15.2734375  C 0.2890625 13.9140625  0 12.4895833333333  0 11  C 0 9.51041666666666  0.2890625 8.0859375  0.8671875 6.7265625  C 1.4453125 5.3671875  2.2265625 4.1953125  3.2109375 3.2109375  C 4.1953125 2.2265625  5.3671875 1.4453125  6.7265625 0.867187500000001  C 8.0859375 0.289062499999999  9.51041666666667 0  11 0  C 12.4895833333333 0  13.9140625 0.289062499999999  15.2734375 0.867187500000001  C 16.6328125 1.4453125  17.8046875 2.2265625  18.7890625 3.2109375  C 19.7734375 4.1953125  20.5546875 5.3671875  21.1328125 6.7265625  C 21.7109375 8.0859375  22 9.51041666666666  22 11  C 22 13.2916666666667  21.3541666666667 15.3697916666667  20.0625 17.234375  L 25.421875 22.59375  Z " fill-rule="nonzero" fill="#fefefe" stroke="none" transform="matrix(1 0 0 1 1621 131 )" />
  </g>
</svg>