<?xml version="1.0" encoding="utf-8"?>
<svg version="1.1" xmlns:xlink="http://www.w3.org/1999/xlink" width="20px" height="16px" xmlns="http://www.w3.org/2000/svg">
  <g transform="matrix(1 0 0 1 -1429 -15 )">
    <path d="M 9.32735426008969 12  L 9.95515695067265 12  L 11.2556053811659 10.6818181818182  L 9.55156950672646 8.95454545454545  L 8.25112107623318 10.2727272727273  L 8.25112107623318 10.9090909090909  L 9.32735426008969 10.9090909090909  L 9.32735426008969 12  Z M 14.8766816143498 4.19318181818182  C 15.0037369207773 4.06439393939394  15.0074738415546 3.93939393939394  14.8878923766816 3.81818181818182  C 14.7683109118087 3.6969696969697  14.6449925261584 3.70075757575757  14.5179372197309 3.82954545454546  L 10.5941704035874 7.80681818181818  C 10.4671150971599 7.93560606060606  10.4633781763827 8.06060606060606  10.5829596412556 8.18181818181818  C 10.7025411061286 8.3030303030303  10.8258594917788 8.29924242424242  10.9529147982063 8.17045454545455  L 14.8766816143498 4.19318181818182  Z M 15.5605381165919 10.2386363636364  C 15.7100149476831 10.2992424242424  15.7847533632287 10.4090909090909  15.7847533632287 10.5681818181818  L 15.7847533632287 12.7272727272727  C 15.7847533632287 13.6287878787879  15.4689835575486 14.3996212121212  14.8374439461883 15.0397727272727  C 14.2059043348281 15.6799242424242  13.4454409566517 16  12.5560538116592 16  L 3.22869955156951 16  C 2.33931240657698 16  1.5788490284006 15.6799242424242  0.947309417040359 15.0397727272727  C 0.31576980568012 14.3996212121212  0 13.6287878787879  0 12.7272727272727  L 0 3.27272727272727  C 0 2.37121212121212  0.31576980568012 1.60037878787879  0.947309417040359 0.960227272727273  C 1.5788490284006 0.320075757575756  2.33931240657698 0  3.22869955156951 0  L 12.5560538116592 0  C 13.0269058295964 0  13.4641255605381 0.0946969696969688  13.8677130044843 0.284090909090908  C 13.9798206278027 0.337121212121211  14.0470852017937 0.424242424242424  14.0695067264574 0.545454545454545  C 14.0919282511211 0.674242424242424  14.0582959641256 0.784090909090908  13.9686098654709 0.875  L 13.4192825112108 1.43181818181818  C 13.3146487294469 1.53787878787879  13.195067264574 1.56818181818182  13.0605381165919 1.52272727272727  C 12.8886397608371 1.47727272727273  12.7204783258595 1.45454545454546  12.5560538116592 1.45454545454546  L 3.22869955156951 1.45454545454546  C 2.73542600896861 1.45454545454546  2.31315396113602 1.63257575757576  1.96188340807175 1.98863636363636  C 1.61061285500747 2.34469696969697  1.43497757847534 2.77272727272727  1.43497757847534 3.27272727272727  L 1.43497757847534 12.7272727272727  C 1.43497757847534 13.2272727272727  1.61061285500747 13.655303030303  1.96188340807175 14.0113636363636  C 2.31315396113602 14.3674242424242  2.73542600896861 14.5454545454545  3.22869955156951 14.5454545454545  L 12.5560538116592 14.5454545454545  C 13.0493273542601 14.5454545454545  13.4715994020927 14.3674242424242  13.822869955157 14.0113636363636  C 14.1741405082212 13.655303030303  14.3497757847534 13.2272727272727  14.3497757847534 12.7272727272727  L 14.3497757847534 11.2954545454545  C 14.3497757847534 11.1969696969697  14.3834080717489 11.1136363636364  14.4506726457399 11.0454545454545  L 15.1681614349776 10.3181818181818  C 15.280269058296 10.2045454545455  15.4110612855007 10.1780303030303  15.5605381165919 10.2386363636364  Z M 7.17488789237668 9.81818181818182  L 14.7085201793722 2.18181818181818  L 17.9372197309417 5.45454545454546  L 10.4035874439462 13.0909090909091  L 7.17488789237668 13.0909090909091  L 7.17488789237668 9.81818181818182  Z M 20 2.90909090909091  C 20 3.21212121212121  19.8953662182362 3.46969696969697  19.6860986547085 3.68181818181818  L 18.6547085201794 4.72727272727273  L 15.4260089686099 1.45454545454546  L 16.457399103139 0.409090909090908  C 16.6666666666667 0.196969696969695  16.9207772795217 0.0909090909090917  17.219730941704 0.0909090909090917  C 17.5186846038864 0.0909090909090917  17.7727952167414 0.196969696969695  17.9820627802691 0.409090909090908  L 19.6860986547085 2.13636363636364  C 19.8953662182362 2.34848484848485  20 2.60606060606061  20 2.90909090909091  Z " fill-rule="nonzero" fill="#5caa36" stroke="none" transform="matrix(1 0 0 1 1429 15 )" />
  </g>
</svg>