<?xml version="1.0" encoding="utf-8"?>
<svg version="1.1" xmlns:xlink="http://www.w3.org/1999/xlink" width="14px" height="16px" xmlns="http://www.w3.org/2000/svg">
  <g transform="matrix(1 0 0 1 -1369 -15 )">
    <path d="M 10.5364583333333 0.607142857142858  L 13.3802083333333 3.39285714285714  C 13.5503472222222 3.55952380952381  13.6961805555556 3.78571428571429  13.8177083333333 4.07142857142857  C 13.9392361111111 4.35714285714286  14 4.61904761904762  14 4.85714285714286  L 14 15.1428571428571  C 14 15.3809523809524  13.9149305555556 15.5833333333333  13.7447916666667 15.75  C 13.5746527777778 15.9166666666667  13.3680555555556 16  13.125 16  L 0.875 16  C 0.631944444444445 16  0.425347222222222 15.9166666666667  0.255208333333333 15.75  C 0.0850694444444444 15.5833333333333  0 15.3809523809524  0 15.1428571428571  L 0 0.857142857142858  C 0 0.619047619047619  0.0850694444444444 0.416666666666666  0.255208333333333 0.25  C 0.425347222222222 0.0833333333333339  0.631944444444445 0  0.875 0  L 9.04166666666667 0  C 9.28472222222222 0  9.55208333333333 0.0595238095238102  9.84375 0.178571428571429  C 10.1354166666667 0.297619047619047  10.3663194444444 0.44047619047619  10.5364583333333 0.607142857142858  Z M 9.70703125 1.41071428571429  C 9.63411458333333 1.33928571428571  9.50954861111111 1.27380952380952  9.33333333333333 1.21428571428571  L 9.33333333333333 4.57142857142857  L 12.7604166666667 4.57142857142857  C 12.6996527777778 4.39880952380952  12.6328125 4.27678571428571  12.5598958333333 4.20535714285714  L 9.70703125 1.41071428571429  Z M 1.16666666666667 14.8571428571429  L 12.8333333333333 14.8571428571429  L 12.8333333333333 5.71428571428571  L 9.04166666666667 5.71428571428571  C 8.79861111111111 5.71428571428571  8.59201388888889 5.63095238095238  8.421875 5.46428571428571  C 8.25173611111111 5.29761904761905  8.16666666666667 5.09523809523809  8.16666666666667 4.85714285714286  L 8.16666666666667 1.14285714285714  L 1.16666666666667 1.14285714285714  L 1.16666666666667 14.8571428571429  Z " fill-rule="nonzero" fill="#5caa36" stroke="none" transform="matrix(1 0 0 1 1369 15 )" />
  </g>
</svg>