<?xml version="1.0" encoding="utf-8"?>
<svg version="1.1" xmlns:xlink="http://www.w3.org/1999/xlink" width="15px" height="16px" xmlns="http://www.w3.org/2000/svg">
  <g transform="matrix(1 0 0 1 -1495 -15 )">
    <path d="M 5.35866477272727 6.09375  C 5.42258522727273 6.15625  5.45454545454546 6.23611111111111  5.45454545454546 6.33333333333333  L 5.45454545454546 12.3333333333333  C 5.45454545454546 12.4305555555556  5.42258522727273 12.5104166666667  5.35866477272727 12.5729166666667  C 5.29474431818182 12.6354166666667  5.21306818181818 12.6666666666667  5.11363636363636 12.6666666666667  L 4.43181818181818 12.6666666666667  C 4.33238636363636 12.6666666666667  4.25071022727273 12.6354166666667  4.18678977272727 12.5729166666667  C 4.12286931818182 12.5104166666667  4.09090909090909 12.4305555555556  4.09090909090909 12.3333333333333  L 4.09090909090909 6.33333333333333  C 4.09090909090909 6.23611111111111  4.12286931818182 6.15625  4.18678977272727 6.09375  C 4.25071022727273 6.03125  4.33238636363636 6  4.43181818181818 6  L 5.11363636363636 6  C 5.21306818181818 6  5.29474431818182 6.03125  5.35866477272727 6.09375  Z M 8.0859375 6.09375  C 8.14985795454546 6.15625  8.18181818181818 6.23611111111111  8.18181818181818 6.33333333333333  L 8.18181818181818 12.3333333333333  C 8.18181818181818 12.4305555555556  8.14985795454546 12.5104166666667  8.0859375 12.5729166666667  C 8.02201704545455 12.6354166666667  7.94034090909091 12.6666666666667  7.84090909090909 12.6666666666667  L 7.15909090909091 12.6666666666667  C 7.05965909090909 12.6666666666667  6.97798295454546 12.6354166666667  6.9140625 12.5729166666667  C 6.85014204545455 12.5104166666667  6.81818181818182 12.4305555555556  6.81818181818182 12.3333333333333  L 6.81818181818182 6.33333333333333  C 6.81818181818182 6.23611111111111  6.85014204545455 6.15625  6.9140625 6.09375  C 6.97798295454546 6.03125  7.05965909090909 6  7.15909090909091 6  L 7.84090909090909 6  C 7.94034090909091 6  8.02201704545455 6.03125  8.0859375 6.09375  Z M 10.8132102272727 6.09375  C 10.8771306818182 6.15625  10.9090909090909 6.23611111111111  10.9090909090909 6.33333333333333  L 10.9090909090909 12.3333333333333  C 10.9090909090909 12.4305555555556  10.8771306818182 12.5104166666667  10.8132102272727 12.5729166666667  C 10.7492897727273 12.6354166666667  10.6676136363636 12.6666666666667  10.5681818181818 12.6666666666667  L 9.88636363636364 12.6666666666667  C 9.78693181818182 12.6666666666667  9.70525568181818 12.6354166666667  9.64133522727273 12.5729166666667  C 9.57741477272727 12.5104166666667  9.54545454545455 12.4305555555556  9.54545454545455 12.3333333333333  L 9.54545454545455 6.33333333333333  C 9.54545454545455 6.23611111111111  9.57741477272727 6.15625  9.64133522727273 6.09375  C 9.70525568181818 6.03125  9.78693181818182 6  9.88636363636364 6  L 10.5681818181818 6  C 10.6676136363636 6  10.7492897727273 6.03125  10.8132102272727 6.09375  Z M 12.1981534090909 14.296875  C 12.2478693181818 14.1684027777778  12.2727272727273 14.0277777777778  12.2727272727273 13.875  L 12.2727272727273 4  L 2.72727272727273 4  L 2.72727272727273 13.875  C 2.72727272727273 14.0277777777778  2.75213068181818 14.1684027777778  2.80184659090909 14.296875  C 2.8515625 14.4253472222222  2.90305397727273 14.5190972222222  2.95632102272727 14.578125  C 3.00958806818182 14.6371527777778  3.046875 14.6666666666667  3.06818181818182 14.6666666666667  L 11.9318181818182 14.6666666666667  C 11.953125 14.6666666666667  11.9904119318182 14.6371527777778  12.0436789772727 14.578125  C 12.0969460227273 14.5190972222222  12.1484375 14.4253472222222  12.1981534090909 14.296875  Z M 5.63565340909091 1.44791666666667  L 5.11363636363636 2.66666666666667  L 9.88636363636364 2.66666666666667  L 9.375 1.44791666666667  C 9.32528409090909 1.38541666666667  9.26491477272727 1.34722222222222  9.19389204545455 1.33333333333333  L 5.81676136363636 1.33333333333333  C 5.74573863636364 1.34722222222222  5.68536931818182 1.38541666666667  5.63565340909091 1.44791666666667  Z M 14.9041193181818 2.76041666666667  C 14.9680397727273 2.82291666666667  15 2.90277777777778  15 3  L 15 3.66666666666667  C 15 3.76388888888889  14.9680397727273 3.84375  14.9041193181818 3.90625  C 14.8401988636364 3.96875  14.7585227272727 4  14.6590909090909 4  L 13.6363636363636 4  L 13.6363636363636 13.875  C 13.6363636363636 14.4513888888889  13.4694602272727 14.9496527777778  13.1356534090909 15.3697916666667  C 12.8018465909091 15.7899305555556  12.4005681818182 16  11.9318181818182 16  L 3.06818181818182 16  C 2.59943181818182 16  2.19815340909091 15.796875  1.86434659090909 15.390625  C 1.53053977272727 14.984375  1.36363636363636 14.4930555555556  1.36363636363636 13.9166666666667  L 1.36363636363636 4  L 0.340909090909091 4  C 0.241477272727273 4  0.159801136363636 3.96875  0.0958806818181818 3.90625  C 0.0319602272727273 3.84375  0 3.76388888888889  0 3.66666666666667  L 0 3  C 0 2.90277777777778  0.0319602272727273 2.82291666666667  0.0958806818181818 2.76041666666667  C 0.159801136363636 2.69791666666667  0.241477272727273 2.66666666666667  0.340909090909091 2.66666666666667  L 3.6328125 2.66666666666667  L 4.37855113636364 0.927083333333334  C 4.48508522727273 0.670138888888888  4.67684659090909 0.451388888888888  4.95383522727273 0.270833333333334  C 5.23082386363636 0.0902777777777768  5.51136363636364 0  5.79545454545455 0  L 9.20454545454546 0  C 9.48863636363637 0  9.76917613636364 0.0902777777777768  10.0461647727273 0.270833333333334  C 10.3231534090909 0.451388888888888  10.5149147727273 0.670138888888888  10.6214488636364 0.927083333333334  L 11.3671875 2.66666666666667  L 14.6590909090909 2.66666666666667  C 14.7585227272727 2.66666666666667  14.8401988636364 2.69791666666667  14.9041193181818 2.76041666666667  Z " fill-rule="nonzero" fill="#aa1111" stroke="none" transform="matrix(1 0 0 1 1495 15 )" />
  </g>
</svg>