<svg t="1686017305102" class="icon" viewBox="0 0 1024 1024" version="1.1" xmlns="http://www.w3.org/2000/svg" p-id="2610" width="200" height="200"><path d="M790.694885 129.309064l-560.567135 0c-28.141944 0-50.960649 22.817682-50.960649 50.960649l0 662.490479c0 28.141944 22.817682 50.960649 50.960649 50.960649l560.567135 0c28.141944 0 50.960649-22.818705 50.960649-50.960649L841.655534 180.269713C841.655534 152.127769 818.836829 129.309064 790.694885 129.309064zM790.694885 804.539706c0 21.113877-17.119913 38.22151-38.22151 38.22151L268.349259 842.761216c-21.126156 0-38.22151-17.107633-38.22151-38.22151L230.127749 218.491223c0-21.101597 17.095353-38.22151 38.22151-38.22151l484.125139 0c21.100574 0 38.22151 17.119913 38.22151 38.22151L790.695908 804.539706zM459.451692 307.672358l-152.881946 0 0 50.960649 152.881946 0L459.451692 307.672358zM561.371966 460.554304 306.569746 460.554304l0 50.960649 254.80222 0L561.371966 460.554304zM306.569746 664.397922l356.722494 0 0-50.960649L306.569746 613.437274 306.569746 664.397922z" fill="#2c2c2c" p-id="2611"></path></svg>