<svg t="1686017592430" class="icon" viewBox="0 0 1024 1024" version="1.1" xmlns="http://www.w3.org/2000/svg" p-id="6805" width="200" height="200"><path d="M512 997.878A485.878 485.878 0 1 1 997.878 512 486.4 486.4 0 0 1 512 997.878z m0-929.96A444.082 444.082 0 1 0 956.082 512 444.604 444.604 0 0 0 512 67.918z" p-id="6806" fill="#bfbfbf"></path><path d="M893.388 532.898A20.898 20.898 0 0 1 872.49 512a359.967 359.967 0 0 0-50.991-184.947 20.898 20.898 0 1 1 35.84-21.525A401.763 401.763 0 0 1 914.286 512a20.898 20.898 0 0 1-20.898 20.898z m-762.776 0A20.898 20.898 0 0 1 109.714 512a402.286 402.286 0 0 1 637.388-326.635 20.898 20.898 0 0 1-24.66 34.064A360.49 360.49 0 0 0 151.51 512a20.898 20.898 0 0 1-20.898 20.898zM512 579.918A67.918 67.918 0 1 1 579.918 512 68.023 68.023 0 0 1 512 579.918z m0-94.04A26.122 26.122 0 1 0 538.122 512 26.122 26.122 0 0 0 512 485.878z" p-id="6807" fill="#bfbfbf"></path><path d="M548.571 496.327a20.898 20.898 0 0 1-14.106-36.572l240.327-219.428a20.898 20.898 0 1 1 28.212 31.346L562.678 491.102a20.898 20.898 0 0 1-14.107 5.225zM412.735 632.163a20.898 20.898 0 0 1-14.733-35.63l62.694-62.695a20.898 20.898 0 0 1 29.57 29.571l-62.694 62.694a20.898 20.898 0 0 1-14.837 6.06z" p-id="6808" fill="#bfbfbf"></path></svg>