<?xml version="1.0" encoding="utf-8"?>
<svg version="1.1" xmlns:xlink="http://www.w3.org/1999/xlink" width="14px" height="16px" xmlns="http://www.w3.org/2000/svg">
  <g transform="matrix(1 0 0 1 -1822 -296 )">
    <path d="M 10.5364583333333 0.607142857142858  L 13.3802083333333 3.39285714285714  C 13.5503472222222 3.55952380952381  13.6961805555556 3.78571428571429  13.8177083333333 4.07142857142857  C 13.9392361111111 4.35714285714286  14 4.61904761904762  14 4.85714285714286  L 14 15.1428571428571  C 14 15.3809523809524  13.9149305555556 15.5833333333333  13.7447916666667 15.75  C 13.5746527777778 15.9166666666667  13.3680555555556 16  13.125 16  L 0.875 16  C 0.631944444444445 16  0.425347222222222 15.9166666666667  0.255208333333333 15.75  C 0.0850694444444444 15.5833333333333  0 15.3809523809524  0 15.1428571428571  L 0 0.857142857142858  C 0 0.619047619047619  0.0850694444444444 0.416666666666666  0.255208333333333 0.25  C 0.425347222222222 0.0833333333333339  0.631944444444445 0  0.875 0  L 9.04166666666667 0  C 9.28472222222222 0  9.55208333333333 0.0595238095238102  9.84375 0.178571428571429  C 10.1354166666667 0.297619047619047  10.3663194444444 0.44047619047619  10.5364583333333 0.607142857142858  Z M 9.70703125 1.41071428571429  C 9.63411458333333 1.33928571428571  9.50954861111111 1.27380952380952  9.33333333333333 1.21428571428571  L 9.33333333333333 4.57142857142857  L 12.7604166666667 4.57142857142857  C 12.6996527777778 4.39880952380952  12.6328125 4.27678571428571  12.5598958333333 4.20535714285714  L 9.70703125 1.41071428571429  Z M 1.16666666666667 14.8571428571429  L 12.8333333333333 14.8571428571429  L 12.8333333333333 5.71428571428571  L 9.04166666666667 5.71428571428571  C 8.79861111111111 5.71428571428571  8.59201388888889 5.63095238095238  8.421875 5.46428571428571  C 8.25173611111111 5.29761904761905  8.16666666666667 5.09523809523809  8.16666666666667 4.85714285714286  L 8.16666666666667 1.14285714285714  L 1.16666666666667 1.14285714285714  L 1.16666666666667 14.8571428571429  Z M 3.5 7.71428571428571  L 3.5 7.14285714285714  C 3.5 7.05952380952381  3.52734375 6.99107142857143  3.58203125 6.9375  C 3.63671875 6.88392857142857  3.70659722222222 6.85714285714286  3.79166666666667 6.85714285714286  L 10.2083333333333 6.85714285714286  C 10.2934027777778 6.85714285714286  10.36328125 6.88392857142857  10.41796875 6.9375  C 10.47265625 6.99107142857143  10.5 7.05952380952381  10.5 7.14285714285714  L 10.5 7.71428571428571  C 10.5 7.79761904761905  10.47265625 7.86607142857143  10.41796875 7.91964285714286  C 10.36328125 7.97321428571429  10.2934027777778 8  10.2083333333333 8  L 3.79166666666667 8  C 3.70659722222222 8  3.63671875 7.97321428571429  3.58203125 7.91964285714286  C 3.52734375 7.86607142857143  3.5 7.79761904761905  3.5 7.71428571428571  Z M 3.79166666666667 9.14285714285714  L 10.2083333333333 9.14285714285714  C 10.2934027777778 9.14285714285714  10.36328125 9.16964285714286  10.41796875 9.22321428571428  C 10.47265625 9.27678571428572  10.5 9.34523809523809  10.5 9.42857142857143  L 10.5 10  C 10.5 10.0833333333333  10.47265625 10.1517857142857  10.41796875 10.2053571428571  C 10.36328125 10.2589285714286  10.2934027777778 10.2857142857143  10.2083333333333 10.2857142857143  L 3.79166666666667 10.2857142857143  C 3.70659722222222 10.2857142857143  3.63671875 10.2589285714286  3.58203125 10.2053571428571  C 3.52734375 10.1517857142857  3.5 10.0833333333333  3.5 10  L 3.5 9.42857142857143  C 3.5 9.34523809523809  3.52734375 9.27678571428572  3.58203125 9.22321428571428  C 3.63671875 9.16964285714286  3.70659722222222 9.14285714285714  3.79166666666667 9.14285714285714  Z M 3.79166666666667 11.4285714285714  L 10.2083333333333 11.4285714285714  C 10.2934027777778 11.4285714285714  10.36328125 11.4553571428571  10.41796875 11.5089285714286  C 10.47265625 11.5625  10.5 11.6309523809524  10.5 11.7142857142857  L 10.5 12.2857142857143  C 10.5 12.3690476190476  10.47265625 12.4375  10.41796875 12.4910714285714  C 10.36328125 12.5446428571429  10.2934027777778 12.5714285714286  10.2083333333333 12.5714285714286  L 3.79166666666667 12.5714285714286  C 3.70659722222222 12.5714285714286  3.63671875 12.5446428571429  3.58203125 12.4910714285714  C 3.52734375 12.4375  3.5 12.3690476190476  3.5 12.2857142857143  L 3.5 11.7142857142857  C 3.5 11.6309523809524  3.52734375 11.5625  3.58203125 11.5089285714286  C 3.63671875 11.4553571428571  3.70659722222222 11.4285714285714  3.79166666666667 11.4285714285714  Z " fill-rule="nonzero" fill="#5caa36" stroke="none" transform="matrix(1 0 0 1 1822 296 )" />
  </g>
</svg>