<?xml version="1.0" encoding="utf-8"?>
<svg version="1.1" xmlns:xlink="http://www.w3.org/1999/xlink" width="27px" height="22px" xmlns="http://www.w3.org/2000/svg">
  <g transform="matrix(1 0 0 1 -1679 -23 )">
    <path d="M 26.2014508928571 9.94125  C 26.7338169642857 11.1695833333333  27 12.6958333333333  27 14.52  C 27 16.0416666666667  26.3621651785714 18.10875  25.0864955357143 20.72125  C 25.0563616071429 20.7854166666667  25.0036272321429 20.8954166666667  24.9282924107143 21.05125  C 24.8529575892857 21.2070833333333  24.78515625 21.3445833333333  24.7248883928571 21.46375  C 24.6646205357143 21.5829166666667  24.5993303571429 21.68375  24.5290178571429 21.76625  C 24.4084821428571 21.9220833333333  24.2678571428571 22  24.1071428571429 22  C 23.9564732142857 22  23.8384486607143 21.9541666666667  23.7530691964286 21.8625  C 23.6676897321429 21.7708333333333  23.625 21.65625  23.625 21.51875  C 23.625 21.43625  23.6375558035714 21.3147916666667  23.6626674107143 21.154375  C 23.6877790178571 20.9939583333333  23.7003348214286 20.88625  23.7003348214286 20.83125  C 23.7505580357143 20.2079166666667  23.7756696428571 19.6441666666667  23.7756696428571 19.14  C 23.7756696428571 18.2141666666667  23.6877790178571 17.3845833333333  23.5119977678571 16.65125  C 23.3362165178571 15.9179166666667  23.0926339285714 15.283125  22.78125 14.746875  C 22.4698660714286 14.210625  22.0680803571429 13.7477083333333  21.5758928571429 13.358125  C 21.0837053571429 12.9685416666667  20.5538504464286 12.65  19.986328125 12.4025  C 19.4188058035714 12.155  18.7508370535714 11.9602083333333  17.982421875 11.818125  C 17.2140066964286 11.6760416666667  16.4405691964286 11.5775  15.662109375 11.5225  C 14.8836495535714 11.4675  14.0022321428571 11.44  13.0178571428571 11.44  L 9.64285714285714 11.44  L 9.64285714285714 14.96  C 9.64285714285714 15.1983333333333  9.54743303571429 15.4045833333333  9.35658482142857 15.57875  C 9.16573660714286 15.7529166666667  8.93973214285714 15.84  8.67857142857143 15.84  C 8.41741071428572 15.84  8.19140625 15.7529166666667  8.00055803571429 15.57875  L 0.286272321428571 8.53875  C 0.0954241071428571 8.36458333333333  0 8.15833333333333  0 7.92  C 0 7.68166666666667  0.0954241071428571 7.47541666666667  0.286272321428571 7.30125  L 8.00055803571429 0.261249999999999  C 8.19140625 0.0870833333333323  8.41741071428572 0  8.67857142857143 0  C 8.93973214285714 0  9.16573660714286 0.0870833333333323  9.35658482142857 0.261249999999999  C 9.54743303571429 0.435416666666664  9.64285714285714 0.641666666666664  9.64285714285714 0.880000000000001  L 9.64285714285714 4.4  L 13.0178571428571 4.4  C 20.1796875 4.4  24.57421875 6.24708333333333  26.2014508928571 9.94125  Z " fill-rule="nonzero" fill="#fdfdfd" stroke="none" transform="matrix(1 0 0 1 1679 23 )" />
  </g>
</svg>