<?xml version="1.0" encoding="utf-8"?>
<svg version="1.1" xmlns:xlink="http://www.w3.org/1999/xlink" width="31px" height="23px" xmlns="http://www.w3.org/2000/svg">
  <g transform="matrix(1 0 0 1 -1173 -401 )">
    <path d="M 5.994140625 16.1147017045455  C 6.42661830357143 15.7063210227273  6.64285714285714 15.2135416666667  6.64285714285714 14.6363636363636  C 6.64285714285714 14.0591856060606  6.42661830357143 13.56640625  5.994140625 13.1580255681818  C 5.56166294642857 12.7496448863636  5.03980654761905 12.5454545454545  4.42857142857143 12.5454545454545  C 3.81733630952381 12.5454545454545  3.29547991071429 12.7496448863636  2.86300223214286 13.1580255681818  C 2.43052455357143 13.56640625  2.21428571428571 14.0591856060606  2.21428571428571 14.6363636363636  C 2.21428571428571 15.2135416666667  2.43052455357143 15.7063210227273  2.86300223214286 16.1147017045455  C 3.29547991071429 16.5230823863636  3.81733630952381 16.7272727272727  4.42857142857143 16.7272727272727  C 5.03980654761905 16.7272727272727  5.56166294642857 16.5230823863636  5.994140625 16.1147017045455  Z M 9.31556919642857 8.79651988636364  C 9.748046875 8.38813920454546  9.96428571428572 7.89535984848485  9.96428571428572 7.31818181818182  C 9.96428571428572 6.74100378787879  9.748046875 6.24822443181818  9.31556919642857 5.83984375  C 8.88309151785714 5.43146306818182  8.36123511904762 5.22727272727273  7.75 5.22727272727273  C 7.13876488095238 5.22727272727273  6.61690848214286 5.43146306818182  6.18443080357143 5.83984375  C 5.751953125 6.24822443181818  5.53571428571429 6.74100378787879  5.53571428571429 7.31818181818182  C 5.53571428571429 7.89535984848485  5.751953125 8.38813920454546  6.18443080357143 8.79651988636364  C 6.61690848214286 9.20490056818182  7.13876488095238 9.40909090909091  7.75 9.40909090909091  C 8.36123511904762 9.40909090909091  8.88309151785714 9.20490056818182  9.31556919642857 8.79651988636364  Z M 18.6138392857143 16.6619318181818  C 18.3601190476191 16.0411931818182  17.9449404761905 15.5456912878788  17.3683035714286 15.1754261363636  L 19.1155133928571 8.93536931818182  C 19.1847098214286 8.65222537878788  19.1414620535714 8.38813920454546  18.9857700892857 8.14311079545455  C 18.830078125 7.89808238636363  18.6080729166667 7.73745265151515  18.3197544642857 7.66122159090909  C 18.0314360119048 7.58499053030303  17.7546502976191 7.62038352272727  17.4893973214286 7.76740056818182  C 17.2241443452381 7.91441761363636  17.0511532738095 8.12949810606061  16.9704241071429 8.41264204545455  L 15.2232142857143 14.6526988636364  C 14.53125 14.7071496212121  13.9142485119048 14.9440104166667  13.3722098214286 15.36328125  C 12.8301711309524 15.7825520833333  12.4668898809524 16.3188920454545  12.2823660714286 16.9723011363636  C 12.0517113095238 17.8108428030303  12.1670386904762 18.6058238636364  12.6283482142857 19.3572443181818  C 13.0896577380952 20.1086647727273  13.7643229166667 20.5932765151515  14.65234375 20.8110795454545  C 15.5403645833333 21.0288825757576  16.3822544642857 20.9199810606061  17.1780133928571 20.484375  C 17.9737723214286 20.0487689393939  18.4869791666667 19.4116950757576  18.7176339285714 18.5731534090909  C 18.9021577380952 17.9197443181818  18.8675595238095 17.2826704545455  18.6138392857143 16.6619318181818  Z M 28.1369977678571 16.1147017045455  C 28.5694754464286 15.7063210227273  28.7857142857143 15.2135416666667  28.7857142857143 14.6363636363636  C 28.7857142857143 14.0591856060606  28.5694754464286 13.56640625  28.1369977678571 13.1580255681818  C 27.7045200892857 12.7496448863636  27.1826636904762 12.5454545454545  26.5714285714286 12.5454545454545  C 25.960193452381 12.5454545454545  25.4383370535714 12.7496448863636  25.005859375 13.1580255681818  C 24.5733816964286 13.56640625  24.3571428571429 14.0591856060606  24.3571428571429 14.6363636363636  C 24.3571428571429 15.2135416666667  24.5733816964286 15.7063210227273  25.005859375 16.1147017045455  C 25.4383370535714 16.5230823863636  25.960193452381 16.7272727272727  26.5714285714286 16.7272727272727  C 27.1826636904762 16.7272727272727  27.7045200892857 16.5230823863636  28.1369977678571 16.1147017045455  Z M 17.0655691964286 5.66015625  C 17.498046875 5.25177556818182  17.7142857142857 4.75899621212121  17.7142857142857 4.18181818181818  C 17.7142857142857 3.60464015151515  17.498046875 3.11186079545454  17.0655691964286 2.70348011363636  C 16.6330915178571 2.29509943181818  16.1112351190476 2.09090909090909  15.5 2.09090909090909  C 14.8887648809524 2.09090909090909  14.3669084821429 2.29509943181818  13.9344308035714 2.70348011363636  C 13.501953125 3.11186079545454  13.2857142857143 3.60464015151515  13.2857142857143 4.18181818181818  C 13.2857142857143 4.75899621212121  13.501953125 5.25177556818182  13.9344308035714 5.66015625  C 14.3669084821429 6.06853693181818  14.8887648809524 6.27272727272727  15.5 6.27272727272727  C 16.1112351190476 6.27272727272727  16.6330915178571 6.06853693181818  17.0655691964286 5.66015625  Z M 24.8155691964286 8.79651988636364  C 25.248046875 8.38813920454546  25.4642857142857 7.89535984848485  25.4642857142857 7.31818181818182  C 25.4642857142857 6.74100378787879  25.248046875 6.24822443181818  24.8155691964286 5.83984375  C 24.3830915178571 5.43146306818182  23.8612351190476 5.22727272727273  23.25 5.22727272727273  C 22.6387648809524 5.22727272727273  22.1169084821429 5.43146306818182  21.6844308035714 5.83984375  C 21.251953125 6.24822443181818  21.0357142857143 6.74100378787879  21.0357142857143 7.31818181818182  C 21.0357142857143 7.89535984848485  21.251953125 8.38813920454546  21.6844308035714 8.79651988636364  C 22.1169084821429 9.20490056818182  22.6387648809524 9.40909090909091  23.25 9.40909090909091  C 23.8612351190476 9.40909090909091  24.3830915178571 9.20490056818182  24.8155691964286 8.79651988636364  Z M 29.7717633928571 8.95170454545455  C 30.5905877976191 10.7594696969697  31 12.6543560606061  31 14.6363636363636  C 31 17.4786931818182  30.1869419642857 20.1086647727273  28.5608258928571 22.5262784090909  C 28.3417038690476 22.8420928030303  28.0303199404762 23  27.6266741071429 23  L 3.37332589285714 23  C 2.96968005952381 23  2.65829613095238 22.8420928030303  2.43917410714286 22.5262784090909  C 0.813058035714286 20.1195549242424  0 17.4895833333333  0 14.6363636363636  C 0 12.6543560606061  0.409412202380952 10.7594696969697  1.22823660714286 8.95170454545455  C 2.04706101190476 7.14393939393939  3.1484375 5.58664772727273  4.53236607142857 4.27982954545455  C 5.91629464285714 2.97301136363636  7.56547619047619 1.93300189393939  9.47991071428572 1.15980113636364  C 11.3943452380952 0.386600378787877  13.4010416666667 0  15.5 0  C 17.5989583333333 0  19.6056547619048 0.386600378787877  21.5200892857143 1.15980113636364  C 23.4345238095238 1.93300189393939  25.0837053571429 2.97301136363636  26.4676339285714 4.27982954545455  C 27.8515625 5.58664772727273  28.9529389880952 7.14393939393939  29.7717633928571 8.95170454545455  Z " fill-rule="nonzero" fill="#ffffff" stroke="none" transform="matrix(1 0 0 1 1173 401 )" />
  </g>
</svg>