<?xml version="1.0" encoding="utf-8"?>
<svg version="1.1" xmlns:xlink="http://www.w3.org/1999/xlink" width="26px" height="23px" xmlns="http://www.w3.org/2000/svg">
  <g transform="matrix(1 0 0 1 -1179 -865 )">
    <path d="M 2.32142857142855 5.34595373910905  L 2.32142857142855 20.6041666666667  L 23.6785714285715 20.6041666666667  L 23.6785714285715 5.34595373910905  L 2.32142857142855 5.34595373910905  Z M 25.3180803571428 0.703776041666668  C 25.7726934523809 1.17296006944444  26 1.73697916666667  26 2.39583333333333  L 26 20.6041666666667  C 26 21.2630208333333  25.7726934523809 21.8270399305556  25.3180803571428 22.2962239583333  C 24.8634672619047 22.7654079861111  24.3169642857143 23  23.6785714285715 23  L 2.32142857142855 23  C 1.6830357142857 23  1.13653273809525 22.7654079861111  0.681919642857151 22.2962239583333  C 0.22730654761905 21.8270399305556  0 21.2630208333333  0 20.6041666666667  L 0 2.39583333333333  C 0 1.73697916666667  0.22730654761905 1.17296006944444  0.681919642857151 0.703776041666668  C 1.13653273809525 0.234592013888886  1.6830357142857 0  2.32142857142855 0  L 23.6785714285715 0  C 24.3169642857143 0  24.8634672619047 0.234592013888886  25.3180803571428 0.703776041666668  Z " fill-rule="nonzero" fill="#ffffff" stroke="none" transform="matrix(1 0 0 1 1179 865 )" />
  </g>
</svg>