<?xml version="1.0" encoding="utf-8"?>
<svg version="1.1" xmlns:xlink="http://www.w3.org/1999/xlink" width="24px" height="21px" xmlns="http://www.w3.org/2000/svg">
  <g transform="matrix(1 0 0 1 -305 -354 )">
    <path d="M 7.3 4.265625  C 7.76666666666667 4.77604166666667  8 5.39583333333333  8 6.125  C 8 6.85416666666667  7.76666666666667 7.47395833333333  7.3 7.984375  C 6.83333333333333 8.49479166666667  6.26666666666667 8.75  5.6 8.75  C 4.93333333333333 8.75  4.36666666666667 8.49479166666667  3.9 7.984375  C 3.43333333333333 7.47395833333333  3.2 6.85416666666667  3.2 6.125  C 3.2 5.39583333333333  3.43333333333333 4.77604166666667  3.9 4.265625  C 4.36666666666667 3.75520833333333  4.93333333333333 3.5  5.6 3.5  C 6.26666666666667 3.5  6.83333333333333 3.75520833333333  7.3 4.265625  Z M 15.6 5.6875  L 20.8 11.375  L 20.8 17.5  L 3.2 17.5  L 3.2 14.875  L 7.2 10.5  L 9.2 12.6875  L 15.6 5.6875  Z M 22.28125 1.8798828125  C 22.2020833333333 1.79329427083333  22.1083333333333 1.75  22 2  L 2 2  C 1.89166666666667 1.75  1.79791666666667 1.79329427083333  1.71875 1.8798828125  C 1.63958333333333 1.96647135416666  1.6 2.06901041666666  2 2.1875  L 2 18.8125  C 1.6 18.9309895833333  1.63958333333333 19.0335286458333  1.71875 19.1201171875  C 1.79791666666667 19.2067057291667  1.89166666666667 19.25  2 19  L 22 19  C 22.1083333333333 19.25  22.2020833333333 19.2067057291667  22.28125 19.1201171875  C 22.3604166666667 19.0335286458333  22.4 18.9309895833333  22 18.8125  L 22 2.1875  C 22.4 2.06901041666666  22.3604166666667 1.96647135416666  22.28125 1.8798828125  Z M 23.4125 0.642578125000001  C 23.8041666666667 1.07096354166667  24 1.5859375  24 2.1875  L 24 18.8125  C 24 19.4140625  23.8041666666667 19.9290364583333  23.4125 20.357421875  C 23.0208333333333 20.7858072916667  22.55 21  22 21  L 2 21  C 1.45 21  0.979166666666667 20.7858072916667  0.5875 20.357421875  C 0.195833333333333 19.9290364583333  0 19.4140625  0 18.8125  L 0 2.1875  C 0 1.5859375  0.195833333333333 1.07096354166667  0.5875 0.642578125000001  C 0.979166666666667 0.214192708333331  1.45 0  2 0  L 22 0  C 22.55 0  23.0208333333333 0.214192708333331  23.4125 0.642578125000001  Z " fill-rule="nonzero" fill="#ffffff" stroke="none" transform="matrix(1 0 0 1 305 354 )" />
  </g>
</svg>