<?xml version="1.0" encoding="utf-8"?>
<svg version="1.1" xmlns:xlink="http://www.w3.org/1999/xlink" width="24px" height="27px" xmlns="http://www.w3.org/2000/svg">
  <g transform="matrix(1 0 0 1 -527 -354 )">
    <path d="M 8.57386363636364 10.283203125  C 8.67613636363636 10.388671875  8.72727272727273 10.5234375  9 10.6875  L 9 20.8125  C 8.72727272727273 20.9765625  8.67613636363636 21.111328125  8.57386363636364 21.216796875  C 8.47159090909091 21.322265625  8.34090909090909 21.375  8.18181818181818 21.375  L 7.09090909090909 21.375  C 6.93181818181818 21.375  6.80113636363637 21.322265625  6.69886363636364 21.216796875  C 6.59659090909091 21.111328125  6.54545454545455 20.9765625  7 20.8125  L 7 10.6875  C 6.54545454545455 10.5234375  6.59659090909091 10.388671875  6.69886363636364 10.283203125  C 6.80113636363637 10.177734375  6.93181818181818 10.125  7.09090909090909 10.125  L 8.18181818181818 10.125  C 8.34090909090909 10.125  8.47159090909091 10.177734375  8.57386363636364 10.283203125  Z M 12.9375 10.283203125  C 13.0397727272727 10.388671875  13.0909090909091 10.5234375  13 10.6875  L 13 20.8125  C 13.0909090909091 20.9765625  13.0397727272727 21.111328125  12.9375 21.216796875  C 12.8352272727273 21.322265625  12.7045454545455 21.375  12.5454545454545 21.375  L 11.4545454545455 21.375  C 11.2954545454545 21.375  11.1647727272727 21.322265625  11.0625 21.216796875  C 10.9602272727273 21.111328125  10.9090909090909 20.9765625  11 20.8125  L 11 10.6875  C 10.9090909090909 10.5234375  10.9602272727273 10.388671875  11.0625 10.283203125  C 11.1647727272727 10.177734375  11.2954545454545 10.125  11.4545454545455 10.125  L 12.5454545454545 10.125  C 12.7045454545455 10.125  12.8352272727273 10.177734375  12.9375 10.283203125  Z M 17.3011363636364 10.283203125  C 17.4034090909091 10.388671875  17.4545454545455 10.5234375  17 10.6875  L 17 20.8125  C 17.4545454545455 20.9765625  17.4034090909091 21.111328125  17.3011363636364 21.216796875  C 17.1988636363636 21.322265625  17.0681818181818 21.375  16.9090909090909 21.375  L 15.8181818181818 21.375  C 15.6590909090909 21.375  15.5284090909091 21.322265625  15.4261363636364 21.216796875  C 15.3238636363636 21.111328125  15.2727272727273 20.9765625  15 20.8125  L 15 10.6875  C 15.2727272727273 10.5234375  15.3238636363636 10.388671875  15.4261363636364 10.283203125  C 15.5284090909091 10.177734375  15.6590909090909 10.125  15.8181818181818 10.125  L 16.9090909090909 10.125  C 17.0681818181818 10.125  17.1988636363636 10.177734375  17.3011363636364 10.283203125  Z M 19.5170454545455 24.1259765625  C 19.5965909090909 23.9091796875  19.6363636363636 23.671875  19.6363636363636 23.4140625  L 19.6363636363636 7  L 4.36363636363636 7  L 4.36363636363636 23.4140625  C 4.36363636363636 23.671875  4.40340909090909 23.9091796875  4.48295454545455 24.1259765625  C 4.5625 24.3427734375  4.64488636363636 24.5009765625  4.73011363636364 24.6005859375  C 4.81534090909091 24.7001953125  4.875 24.75  4.90909090909091 24.75  L 19.0909090909091 24.75  C 19.125 24.75  19.1846590909091 24.7001953125  19.2698863636364 24.6005859375  C 19.3551136363636 24.5009765625  19.4375 24.3427734375  19.5170454545455 24.1259765625  Z M 9.01704545454546 2.443359375  L 8.18181818181818 4.5  L 15.8181818181818 4.5  L 15 2.443359375  C 14.9204545454545 2.337890625  14.8238636363636 2.2734375  14.7102272727273 2.25  L 9.30681818181818 2.25  C 9.19318181818182 2.2734375  9.09659090909091 2.337890625  9.01704545454546 2.443359375  Z M 23.8465909090909 4.658203125  C 23.9488636363636 4.763671875  24 4.8984375  24 5.0625  L 24 6.1875  C 24 6.3515625  23.9488636363636 6.486328125  23.8465909090909 6.591796875  C 23.7443181818182 6.697265625  23.6136363636364 6.75  23.4545454545455 6.75  L 21.8181818181818 6.75  L 21.8181818181818 23.4140625  C 21.8181818181818 24.38671875  21.5511363636364 25.2275390625  21.0170454545455 25.9365234375  C 20.4829545454545 26.6455078125  19.8409090909091 27  19.0909090909091 27  L 4.90909090909091 27  C 4.15909090909091 27  3.51704545454546 26.6572265625  2.98295454545455 25.9716796875  C 2.44886363636364 25.2861328125  2.18181818181818 24.45703125  2.18181818181818 23.484375  L 2.18181818181818 6.75  L 0.545454545454545 6.75  C 0.386363636363636 6.75  0.255681818181818 6.697265625  0.153409090909091 6.591796875  C 0.0511363636363636 6.486328125  0 6.3515625  0 6.1875  L 0 5.0625  C 0 4.8984375  0.0511363636363636 4.763671875  0.153409090909091 4.658203125  C 0.255681818181818 4.552734375  0.386363636363636 4.5  0.545454545454545 4.5  L 5.8125 4.5  L 7.00568181818182 1.564453125  C 7.17613636363637 1.130859375  7.48295454545455 0.761718749999998  7.92613636363636 0.457031250000001  C 8.36931818181818 0.152343749999998  8.81818181818182 0  9.27272727272727 0  L 14.7272727272727 0  C 15.1818181818182 0  15.6306818181818 0.152343749999998  16.0738636363636 0.457031250000001  C 16.5170454545455 0.761718749999998  16.8238636363636 1.130859375  16.9943181818182 1.564453125  L 18.1875 4.5  L 23.4545454545455 4.5  C 23.6136363636364 4.5  23.7443181818182 4.552734375  23.8465909090909 4.658203125  Z " fill-rule="nonzero" fill="#ffffff" stroke="none" transform="matrix(1 0 0 1 527 354 )" />
  </g>
</svg>