<?xml version="1.0" encoding="utf-8"?>
<svg version="1.1" xmlns:xlink="http://www.w3.org/1999/xlink" width="38px" height="29px" xmlns="http://www.w3.org/2000/svg">
  <g transform="matrix(1 0 0 1 -15 -13 )">
    <path d="M 7.34765625 20.3185369318182  C 7.87779017857143 19.8036221590909  8.14285714285714 19.1822916666667  8.14285714285714 18.4545454545455  C 8.14285714285714 17.7267992424242  7.87779017857143 17.10546875  7.34765625 16.5905539772727  C 6.81752232142857 16.0756392045455  6.17782738095238 15.8181818181818  5.42857142857143 15.8181818181818  C 4.67931547619048 15.8181818181818  4.03962053571429 16.0756392045455  3.50948660714286 16.5905539772727  C 2.97935267857143 17.10546875  2.71428571428571 17.7267992424242  2.71428571428571 18.4545454545455  C 2.71428571428571 19.1822916666667  2.97935267857143 19.8036221590909  3.50948660714286 20.3185369318182  C 4.03962053571429 20.8334517045455  4.67931547619048 21.0909090909091  5.42857142857143 21.0909090909091  C 6.17782738095238 21.0909090909091  6.81752232142857 20.8334517045455  7.34765625 20.3185369318182  Z M 11.4190848214286 11.0912642045455  C 11.94921875 10.5763494318182  12.2142857142857 9.95501893939394  12.2142857142857 9.22727272727273  C 12.2142857142857 8.49952651515151  11.94921875 7.87819602272727  11.4190848214286 7.36328125  C 10.8889508928571 6.84836647727273  10.249255952381 6.59090909090909  9.5 6.59090909090909  C 8.75074404761905 6.59090909090909  8.11104910714286 6.84836647727273  7.58091517857143 7.36328125  C 7.05078125 7.87819602272727  6.78571428571429 8.49952651515151  6.78571428571429 9.22727272727273  C 6.78571428571429 9.95501893939394  7.05078125 10.5763494318182  7.58091517857143 11.0912642045455  C 8.11104910714286 11.6061789772727  8.75074404761905 11.8636363636364  9.5 11.8636363636364  C 10.249255952381 11.8636363636364  10.8889508928571 11.6061789772727  11.4190848214286 11.0912642045455  Z M 22.8169642857143 21.0085227272727  C 22.5059523809524 20.2258522727273  21.9970238095238 19.6010890151515  21.2901785714286 19.1342329545455  L 23.4319196428571 11.2663352272727  C 23.5167410714286 10.9093276515151  23.4637276785714 10.5763494318182  23.2728794642857 10.2674005681818  C 23.08203125 9.95845170454545  22.8098958333333 9.75591856060606  22.4564732142857 9.65980113636364  C 22.1030505952381 9.56368371212121  21.7637648809524 9.60830965909091  21.4386160714286 9.79367897727273  C 21.1134672619048 9.97904829545455  20.9014136904762 10.2502367424242  20.8024553571429 10.6072443181818  L 18.6607142857143 18.4751420454545  C 17.8125 18.5437973484848  17.0561755952381 18.8424479166667  16.3917410714286 19.37109375  C 15.727306547619 19.8997395833333  15.281994047619 20.5759943181818  15.0558035714286 21.3998579545455  C 14.7730654761905 22.4571496212121  14.9144345238095 23.4595170454545  15.4799107142857 24.4069602272727  C 16.0453869047619 25.3544034090909  16.8723958333333 25.9654356060606  17.9609375 26.2400568181818  C 19.0494791666667 26.514678030303  20.0814732142857 26.3773674242424  21.0569196428571 25.828125  C 22.0323660714286 25.2788825757576  22.6614583333333 24.475615530303  22.9441964285714 23.4183238636364  C 23.1703869047619 22.5944602272727  23.1279761904762 21.7911931818182  22.8169642857143 21.0085227272727  Z M 34.4905133928571 20.3185369318182  C 35.0206473214286 19.8036221590909  35.2857142857143 19.1822916666667  35.2857142857143 18.4545454545455  C 35.2857142857143 17.7267992424242  35.0206473214286 17.10546875  34.4905133928571 16.5905539772727  C 33.9603794642857 16.0756392045455  33.3206845238095 15.8181818181818  32.5714285714286 15.8181818181818  C 31.8221726190476 15.8181818181818  31.1824776785714 16.0756392045455  30.65234375 16.5905539772727  C 30.1222098214286 17.10546875  29.8571428571429 17.7267992424242  29.8571428571429 18.4545454545455  C 29.8571428571429 19.1822916666667  30.1222098214286 19.8036221590909  30.65234375 20.3185369318182  C 31.1824776785714 20.8334517045455  31.8221726190476 21.0909090909091  32.5714285714286 21.0909090909091  C 33.3206845238095 21.0909090909091  33.9603794642857 20.8334517045455  34.4905133928571 20.3185369318182  Z M 20.9190848214286 7.13671875  C 21.44921875 6.62180397727273  21.7142857142857 6.00047348484848  21.7142857142857 5.27272727272727  C 21.7142857142857 4.54498106060606  21.44921875 3.92365056818182  20.9190848214286 3.40873579545455  C 20.3889508928571 2.89382102272727  19.749255952381 2.63636363636364  19 2.63636363636364  C 18.2507440476191 2.63636363636364  17.6110491071429 2.89382102272727  17.0809151785714 3.40873579545455  C 16.55078125 3.92365056818182  16.2857142857143 4.54498106060606  16.2857142857143 5.27272727272727  C 16.2857142857143 6.00047348484848  16.55078125 6.62180397727273  17.0809151785714 7.13671875  C 17.6110491071429 7.65163352272727  18.2507440476191 7.90909090909091  19 7.90909090909091  C 19.749255952381 7.90909090909091  20.3889508928571 7.65163352272727  20.9190848214286 7.13671875  Z M 30.4190848214286 11.0912642045455  C 30.94921875 10.5763494318182  31.2142857142857 9.95501893939394  31.2142857142857 9.22727272727273  C 31.2142857142857 8.49952651515151  30.94921875 7.87819602272727  30.4190848214286 7.36328125  C 29.8889508928571 6.84836647727273  29.249255952381 6.59090909090909  28.5 6.59090909090909  C 27.7507440476191 6.59090909090909  27.1110491071429 6.84836647727273  26.5809151785714 7.36328125  C 26.05078125 7.87819602272727  25.7857142857143 8.49952651515151  25.7857142857143 9.22727272727273  C 25.7857142857143 9.95501893939394  26.05078125 10.5763494318182  26.5809151785714 11.0912642045455  C 27.1110491071429 11.6061789772727  27.7507440476191 11.8636363636364  28.5 11.8636363636364  C 29.249255952381 11.8636363636364  29.8889508928571 11.6061789772727  30.4190848214286 11.0912642045455  Z M 36.4944196428571 11.2869318181818  C 37.4981398809524 13.5662878787879  38 15.9554924242424  38 18.4545454545455  C 38 22.0383522727273  37.0033482142857 25.3544034090909  35.0100446428571 28.4026988636364  C 34.741443452381 28.8008996212121  34.3597470238095 29  33.8649553571429 29  L 4.13504464285714 29  C 3.64025297619048 29  3.25855654761905 28.8008996212121  2.98995535714286 28.4026988636364  C 0.996651785714286 25.368134469697  0 22.0520833333333  0 18.4545454545455  C 0 15.9554924242424  0.501860119047619 13.5662878787879  1.50558035714286 11.2869318181818  C 2.5093005952381 9.00757575757576  3.859375 7.04403409090909  5.55580357142857 5.39630681818182  C 7.25223214285714 3.74857954545455  9.27380952380953 2.43726325757576  11.6205357142857 1.46235795454545  C 13.9672619047619 0.487452651515149  16.4270833333333 0  19 0  C 21.5729166666667 0  24.0327380952381 0.487452651515149  26.3794642857143 1.46235795454545  C 28.7261904761905 2.43726325757576  30.7477678571429 3.74857954545455  32.4441964285714 5.39630681818182  C 34.140625 7.04403409090909  35.4906994047619 9.00757575757576  36.4944196428571 11.2869318181818  Z " fill-rule="nonzero" fill="#ffffff" stroke="none" transform="matrix(1 0 0 1 15 13 )" />
  </g>
</svg>