<?xml version="1.0" encoding="utf-8"?>
<svg version="1.1" xmlns:xlink="http://www.w3.org/1999/xlink" width="22px" height="21px" xmlns="http://www.w3.org/2000/svg">
  <g transform="matrix(1 0 0 1 -153 -599 )">
    <path d="M 2 5  L 2 18.8125  L 20 18.8125  L 20 5  L 2 5  Z M 21.4229910714286 0.642578125000001  C 21.8076636904762 1.07096354166667  22 1.5859375  22 2.1875  L 22 18.8125  C 22 19.4140625  21.8076636904762 19.9290364583333  21.4229910714286 20.357421875  C 21.0383184523809 20.7858072916667  20.5758928571429 21  20.0357142857143 21  L 1.96428571428569 21  C 1.42410714285713 21  0.961681547619059 20.7858072916667  0.577008928571436 20.357421875  C 0.192336309523812 19.9290364583333  0 19.4140625  0 18.8125  L 0 2.1875  C 0 1.5859375  0.192336309523812 1.07096354166667  0.577008928571436 0.642578125000001  C 0.961681547619059 0.214192708333331  1.42410714285713 0  1.96428571428569 0  L 20.0357142857143 0  C 20.5758928571429 0  21.0383184523809 0.214192708333331  21.4229910714286 0.642578125000001  Z " fill-rule="nonzero" fill="#ffffff" stroke="none" transform="matrix(1 0 0 1 153 599 )" />
  </g>
</svg>