<?xml version="1.0" encoding="utf-8"?>
<svg version="1.1" xmlns:xlink="http://www.w3.org/1999/xlink" width="26px" height="18px" xmlns="http://www.w3.org/2000/svg">
  <g transform="matrix(1 0 0 1 -766 -85 )">
    <path d="M 24.8625 10.0291193181818  C 25.6208333333333 10.9197443181818  26 11.9403409090909  26 13.0909090909091  C 26 14.4460227272727  25.4921875 15.6029829545455  24.4765625 16.5617897727273  C 23.4609375 17.5205965909091  22.2354166666667 18  20.8 18  L 6.06666666666667 18  C 4.39652777777778 18  2.96788194444444 17.4396306818182  1.78072916666667 16.3188920454545  C 0.593576388888889 15.1981534090909  0 13.8494318181818  0 12.2727272727273  C 0 11.1477272727273  0.320486111111111 10.1186079545455  0.961458333333333 9.18536931818182  C 1.60243055555556 8.25213068181818  2.44652777777778 7.55539772727273  3.49375 7.09517045454545  C 3.47569444444444 6.85653409090909  3.46666666666667 6.67329545454545  3.46666666666667 6.54545454545455  C 3.46666666666667 4.73863636363636  4.14375 3.19602272727273  5.49791666666667 1.91761363636364  C 6.85208333333333 0.639204545454546  8.48611111111111 0  10.4 0  C 11.8263888888889 0  13.1196180555556 0.374999999999999  14.2796875 1.125  C 15.4397569444444 1.875  16.2861111111111 2.85511363636364  16.81875 4.06534090909091  C 17.4506944444444 3.53693181818182  18.2 3.27272727272727  19.0666666666667 3.27272727272727  C 20.0236111111111 3.27272727272727  20.840625 3.59232954545455  21.5177083333333 4.23153409090909  C 22.1947916666667 4.87073863636364  22.5333333333333 5.64204545454545  22.5333333333333 6.54545454545455  C 22.5333333333333 7.18465909090909  22.3482638888889 7.77272727272727  21.978125 8.30965909090909  C 23.1427083333333 8.56534090909091  24.1041666666667 9.13849431818182  24.8625 10.0291193181818  Z " fill-rule="nonzero" fill="#ffffff" stroke="none" transform="matrix(1 0 0 1 766 85 )" />
  </g>
</svg>